<svg xmlns="http://www.w3.org/2000/svg" viewBox="0 0 48 56" role="img" aria-label="Traffy Fondue report">
  <title>Traffy Fondue report</title>
  <defs><filter id="s" x="-30%" y="-20%" width="160%" height="170%"><feDropShadow dx="0" dy="2" stdDeviation="1.5" flood-color="#172331" flood-opacity=".30"/></filter></defs>
  <path filter="url(#s)" d="M24 2C12.4 2 4 10.6 4 22.2 4 37 24 54 24 54s20-17 20-31.8C44 10.6 35.6 2 24 2Z" fill="#078EA8" stroke="#FFFFFF" stroke-width="3"/>
  <g color="#FFFFFF" fill="none" stroke="currentColor" stroke-width="2.4" stroke-linecap="round" stroke-linejoin="round"><path d="M15 15h18a4 4 0 0 1 4 4v9a4 4 0 0 1-4 4H24l-7 5v-5h-2a4 4 0 0 1-4-4v-9a4 4 0 0 1 4-4Z"/><path d="M24 19v6"/><circle cx="24" cy="28.5" r="1.2" fill="currentColor" stroke="none"/></g>
</svg>